<svg width="476" height="151" viewBox="0 0 476 151" fill="none" xmlns="http://www.w3.org/2000/svg">
<rect x="26" y="26" width="450" height="125" fill="#4636FF" fill-opacity="0.5"/>
<rect x="26" y="26" width="424" height="99" fill="#4636FF" fill-opacity="0.3"/>
<rect width="450" height="125" fill="#4636FF" fill-opacity="0.5"/>
<path d="M95.992 98L87.56 53.36H95.62L104.672 98H95.992ZM75.16 98L66.48 53.36H76.4L85.08 98H75.16ZM78.508 98L87.56 53.36H95.62L87.188 98H78.508ZM98.1 98L106.78 53.36H116.7L108.02 98H98.1ZM129.479 98V90.188H145.227V98H129.479ZM129.479 79.586V71.774H141.507V79.586H129.479ZM121.667 53.36H131.959V98H121.667V53.36ZM130.099 53.36H144.607V61.172H130.099V53.36ZM164.166 77.478V71.526C165.489 71.526 166.522 71.0713 167.266 70.162C168.052 69.2527 168.444 67.9713 168.444 66.318H178.736C178.736 68.426 178.096 70.3273 176.814 72.022C175.533 73.7167 173.797 75.06 171.606 76.052C169.416 77.0027 166.936 77.478 164.166 77.478ZM161.128 98V90.188H164.848V98H161.128ZM161.128 78.718V71.526H164.786V78.718H161.128ZM169.064 85.042V83.864H179.356V85.042H169.064ZM169.064 83.926C169.064 82.2727 168.672 80.9913 167.886 80.082C167.142 79.1727 166.109 78.718 164.786 78.718V72.766C167.556 72.766 170.036 73.262 172.226 74.254C174.417 75.2047 176.153 76.5273 177.434 78.222C178.716 79.8753 179.356 81.7767 179.356 83.926H169.064ZM161.128 61.172V53.36H164.228V61.172H161.128ZM178.736 66.38H168.444C168.444 64.7267 168.052 63.4453 167.266 62.536C166.522 61.6267 165.489 61.172 164.166 61.172V53.36C166.936 53.36 169.416 53.9387 171.606 55.096C173.797 56.212 175.533 57.762 176.814 59.746C178.096 61.6887 178.736 63.9 178.736 66.38ZM179.356 84.98C179.356 87.46 178.716 89.692 177.434 91.676C176.153 93.6187 174.417 95.1687 172.226 96.326C170.036 97.442 167.556 98 164.786 98V90.188C166.109 90.188 167.142 89.7333 167.886 88.824C168.672 87.9147 169.064 86.6333 169.064 84.98H179.356ZM151.456 98V53.36H161.748V98H151.456ZM196.385 61.172V53.36H226.765V61.172H196.385ZM206.429 98V53.36H216.721V98H206.429ZM239.553 98V90.188H255.301V98H239.553ZM239.553 79.586V71.774H251.581V79.586H239.553ZM231.741 53.36H242.033V98H231.741V53.36ZM240.173 53.36H254.681V61.172H240.173V53.36ZM260.911 86.034V65.326H271.203V86.034H260.911ZM260.911 65.388C260.911 62.908 261.551 60.6967 262.833 58.754C264.114 56.77 265.85 55.22 268.041 54.104C270.231 52.9467 272.711 52.368 275.481 52.368V60.18C274.158 60.18 273.104 60.6347 272.319 61.544C271.575 62.4533 271.203 63.7347 271.203 65.388H260.911ZM260.911 85.972H271.203C271.203 87.6253 271.575 88.9067 272.319 89.816C273.104 90.7253 274.158 91.18 275.481 91.18V98.992C272.711 98.992 270.231 98.434 268.041 97.318C265.85 96.1607 264.114 94.6107 262.833 92.668C261.551 90.684 260.911 88.452 260.911 85.972ZM280.999 67.558C280.875 65.2433 280.317 63.4453 279.325 62.164C278.333 60.8413 277.031 60.18 275.419 60.18V52.368C279.676 52.368 283.107 53.5667 285.711 55.964C288.315 58.32 289.823 61.6473 290.237 65.946L280.999 67.558ZM280.999 83.802L290.237 85.414C289.823 89.6713 288.315 92.9987 285.711 95.396C283.107 97.7933 279.676 98.992 275.419 98.992V91.18C277.031 91.18 278.333 90.5393 279.325 89.258C280.317 87.9353 280.875 86.1167 280.999 83.802ZM299.52 79.648V71.836H318.492V79.648H299.52ZM314.772 98V53.36H325.064V98H314.772ZM295.8 98V53.36H306.092V98H295.8ZM344.889 86.034V65.326H355.181V86.034H344.889ZM344.889 65.388C344.889 62.908 345.53 60.6967 346.811 58.754C348.092 56.77 349.828 55.22 352.019 54.104C354.21 52.9467 356.69 52.368 359.459 52.368V60.18C358.136 60.18 357.082 60.6347 356.297 61.544C355.553 62.4533 355.181 63.7347 355.181 65.388H344.889ZM344.889 85.972H355.181C355.181 87.6253 355.553 88.9067 356.297 89.816C357.082 90.7253 358.136 91.18 359.459 91.18V98.992C356.69 98.992 354.21 98.434 352.019 97.318C349.828 96.1607 348.092 94.6107 346.811 92.668C345.53 90.684 344.889 88.452 344.889 85.972ZM364.977 67.558C364.853 65.2433 364.295 63.4453 363.303 62.164C362.311 60.8413 361.009 60.18 359.397 60.18V52.368C363.654 52.368 367.085 53.5667 369.689 55.964C372.293 58.32 373.802 61.6473 374.215 65.946L364.977 67.558ZM364.977 83.802L374.215 85.414C373.802 89.6713 372.293 92.9987 369.689 95.396C367.085 97.7933 363.654 98.992 359.397 98.992V91.18C361.009 91.18 362.311 90.5393 363.303 89.258C364.295 87.9353 364.853 86.1167 364.977 83.802ZM397.387 85.104V66.318H407.679V85.104H397.387ZM388.831 98V90.188H393.109V98H388.831ZM388.831 61.172V53.36H393.109V61.172H388.831ZM388.831 61.172V53.36H393.109V61.172H388.831ZM407.679 66.38H397.387C397.387 64.7267 396.994 63.4453 396.209 62.536C395.465 61.6267 394.431 61.172 393.109 61.172V53.36C395.878 53.36 398.358 53.9387 400.549 55.096C402.739 56.212 404.475 57.762 405.757 59.746C407.038 61.6887 407.679 63.9 407.679 66.38ZM407.679 84.98C407.679 87.46 407.038 89.692 405.757 91.676C404.475 93.6187 402.739 95.1687 400.549 96.326C398.358 97.442 395.878 98 393.109 98V90.188C394.431 90.188 395.465 89.7333 396.209 88.824C396.994 87.9147 397.387 86.6333 397.387 84.98H407.679ZM379.779 98V53.36H390.071V98H379.779Z" fill="white"/>
</svg>
